<svg width="46" height="46" viewBox="0 0 46 46" fill="none" xmlns="http://www.w3.org/2000/svg">
<path d="M40.408 7.12387L33.5095 0.2254C33.3707 0.0858667 33.1791 0 32.9667 0H9.20003C7.08633 0 5.3667 1.71963 5.3667 3.83333V42.1667C5.3667 44.2804 7.08633 46 9.20003 46H36.8C38.9137 46 40.6334 44.2804 40.6334 42.1667V7.66667C40.6334 7.4543 40.5475 7.26263 40.408 7.12387ZM33.7334 2.6174L38.016 6.9H33.7334V2.6174ZM39.1 42.1667C39.1 43.4347 38.0681 44.4667 36.8 44.4667H9.20003C7.93197 44.4667 6.90003 43.4347 6.90003 42.1667V3.83333C6.90003 2.56527 7.93197 1.53333 9.20003 1.53333H32.2V7.66667C32.2 8.09063 32.5435 8.43333 32.9667 8.43333H39.1V42.1667Z" fill="#0451A5"/>
<path d="M12.2666 10.7333C10.5754 10.7333 9.19995 12.1087 9.19995 13.8C9.19995 15.4913 10.5754 16.8667 12.2666 16.8667C13.9579 16.8667 15.3333 15.4913 15.3333 13.8C15.3333 12.1087 13.9579 10.7333 12.2666 10.7333ZM12.2666 15.3333C11.421 15.3333 10.7333 14.6456 10.7333 13.8C10.7333 12.9544 11.421 12.2667 12.2666 12.2667C13.1123 12.2667 13.8 12.9544 13.8 13.8C13.8 14.6456 13.1123 15.3333 12.2666 15.3333Z" fill="#0451A5"/>
<path d="M12.2666 19.1667C10.5754 19.1667 9.19995 20.5421 9.19995 22.2333C9.19995 23.9246 10.5754 25.3 12.2666 25.3C13.9579 25.3 15.3333 23.9246 15.3333 22.2333C15.3333 20.5421 13.9579 19.1667 12.2666 19.1667ZM12.2666 23.7667C11.421 23.7667 10.7333 23.079 10.7333 22.2333C10.7333 21.3877 11.421 20.7 12.2666 20.7C13.1123 20.7 13.8 21.3877 13.8 22.2333C13.8 23.079 13.1123 23.7667 12.2666 23.7667Z" fill="#0451A5"/>
<path d="M12.2666 27.6C10.5754 27.6 9.19995 28.9754 9.19995 30.6667C9.19995 32.3579 10.5754 33.7333 12.2666 33.7333C13.9579 33.7333 15.3333 32.3579 15.3333 30.6667C15.3333 28.9754 13.9579 27.6 12.2666 27.6ZM12.2666 32.2C11.421 32.2 10.7333 31.5123 10.7333 30.6667C10.7333 29.821 11.421 29.1333 12.2666 29.1333C13.1123 29.1333 13.8 29.821 13.8 30.6667C13.8 31.5123 13.1123 32.2 12.2666 32.2Z" fill="#0451A5"/>
<path d="M12.2666 36.0333C10.5754 36.0333 9.19995 37.4087 9.19995 39.1C9.19995 40.7913 10.5754 42.1667 12.2666 42.1667C13.9579 42.1667 15.3333 40.7913 15.3333 39.1C15.3333 37.4087 13.9579 36.0333 12.2666 36.0333ZM12.2666 40.6333C11.421 40.6333 10.7333 39.9456 10.7333 39.1C10.7333 38.2544 11.421 37.5667 12.2666 37.5667C13.1123 37.5667 13.8 38.2544 13.8 39.1C13.8 39.9456 13.1123 40.6333 12.2666 40.6333Z" fill="#0451A5"/>
<path d="M36.8 14.5667H16.8667V16.1H36.8V14.5667Z" fill="#0451A5"/>
<path d="M28.3666 3.83333H17.6333V5.36666H28.3666V3.83333Z" fill="#0451A5"/>
<path d="M30.6667 6.89999H15.3334V8.43333H30.6667V6.89999Z" fill="#0451A5"/>
<path d="M36.8 23H16.8667V24.5333H36.8V23Z" fill="#0451A5"/>
<path d="M36.8 31.4333H16.8667V32.9667H36.8V31.4333Z" fill="#0451A5"/>
<path d="M36.8 39.8667H16.8667V41.4H36.8V39.8667Z" fill="#0451A5"/>
<path d="M24.5333 11.5H23V13.0333H24.5333V11.5Z" fill="#0451A5"/>
<path d="M21.4667 11.5H19.9333V13.0333H21.4667V11.5Z" fill="#0451A5"/>
<path d="M18.4 11.5H16.8667V13.0333H18.4V11.5Z" fill="#0451A5"/>
</svg>
