<svg width="45" height="39" viewBox="0 0 45 39" fill="none" xmlns="http://www.w3.org/2000/svg">
<path fill-rule="evenodd" clip-rule="evenodd" d="M42.675 10.5164C42.6386 10.5495 42.6116 10.5692 42.6116 10.5692C42.5928 10.6202 42.5589 10.6643 42.5143 10.6955C42.4533 10.7235 42.3865 10.7364 42.3195 10.7331C42.2884 10.7781 42.2462 10.8143 42.197 10.8382C42.127 10.8687 42.0305 10.8601 41.9384 10.9015C41.7288 10.9952 41.507 11.0966 41.3386 11.1672C40.9812 11.3176 40.954 11.3063 40.954 11.3063C40.954 11.3063 40.765 11.6168 40.5944 11.7051C40.4432 11.7784 40.27 11.7924 40.1089 11.7443C40.0145 11.7428 39.921 11.7259 39.8321 11.6944C39.7301 11.6515 39.6343 11.56 39.5213 11.5496C39.459 11.5412 39.3956 11.5465 39.3355 11.5651C39.2755 11.5836 39.2202 11.6151 39.1735 11.6572C39.1735 11.6572 37.4531 12.7758 35.9231 13.2285C34.543 13.6366 33.9113 13.5245 33.2741 13.5112C32.8444 13.5021 32.5367 13.5079 32.5367 13.5079C32.5367 13.5079 32.588 14.278 32.5625 14.7186C32.5507 14.9232 32.486 14.9787 32.4584 14.993C32.371 15.0389 32.2458 14.9237 32.2106 14.9012C32.1273 14.8895 32.0426 14.8915 31.96 14.9071C31.8844 14.9287 31.8072 14.9446 31.7292 14.9546C31.6685 14.9484 31.6087 14.9349 31.5512 14.9144C31.4945 14.8986 31.2871 14.8985 31.1731 14.8809C30.9861 14.8257 30.8059 14.7496 30.6359 14.6541C30.5377 14.5954 30.5438 14.6301 30.4443 14.6059C30.3609 14.5897 30.2747 14.594 30.1933 14.6184C30.0851 14.6357 30.097 14.7058 30.0819 14.733C30.0293 14.8044 29.9669 14.8679 29.8965 14.9218C29.8678 14.9277 29.679 14.9978 29.6433 15.0035C29.5808 15.0035 29.5185 14.9968 29.4574 14.9834C29.3991 14.955 29.3469 14.9154 29.3039 14.8669C29.2553 14.827 29.2009 14.7948 29.1425 14.7714C29.0997 14.7561 28.9977 14.8153 28.9541 14.8413C28.8937 14.9062 28.8473 14.9828 28.8178 15.0663C28.7937 15.1282 28.7367 15.133 28.6557 15.1932C28.5747 15.2529 28.4397 15.2137 28.3976 15.1982C28.3314 15.1768 28.2594 15.1819 28.1968 15.2124C28.0847 15.2592 27.981 15.3238 27.8895 15.4037C27.8155 15.5056 27.7226 15.5923 27.6158 15.659C27.4995 15.7246 27.5532 15.6013 27.4434 15.6741C27.3341 15.7472 27.1658 16.0542 27.1658 16.0542C27.1547 16.1344 27.1301 16.2122 27.0931 16.2842C26.9973 16.4718 26.8797 16.6475 26.7427 16.8075C26.5758 17.0019 26.3559 17.1434 26.1099 17.215C26.1099 17.215 26.2027 17.3851 26.1558 17.4655C26.1219 17.5229 26.032 17.4977 25.9702 17.5213C25.9284 17.5417 25.8946 17.5756 25.8744 17.6175C25.8744 17.6175 26.0116 17.6654 26.0012 17.7407C25.9779 17.9068 26.0707 18.5241 25.9989 18.8731C25.9724 19.0032 26.0492 19.0688 26.0497 19.236C26.0396 19.4315 25.9986 19.6242 25.9282 19.8069C25.8978 19.8822 25.842 19.9445 25.7706 19.9832C25.6992 20.0218 25.6165 20.0344 25.5368 20.0188C25.5368 20.0188 25.8392 20.6735 26.0543 21.235C26.1369 21.45 26.1623 21.6132 26.2127 21.7717C26.2814 21.9894 26.3602 22.1668 26.3602 22.1668C26.4086 22.3643 26.442 22.5651 26.4601 22.7676C26.4908 23.08 26.4968 23.3943 26.4783 23.7076C26.4176 24.2615 26.2991 24.8076 26.1246 25.3369C26.0942 25.4314 26.0721 25.5283 26.0584 25.6266C26.1029 25.6417 26.1434 25.6668 26.1767 25.7C26.21 25.7332 26.2352 25.7736 26.2504 25.8181C26.3232 26.0352 26.3741 26.2591 26.4024 26.4864C26.4392 26.6044 26.4611 26.7265 26.4676 26.85C26.4603 27.0573 26.4347 27.2636 26.3911 27.4664C26.3911 27.4664 26.6634 27.2043 26.8005 27.2653C26.8336 27.2778 26.8636 27.2975 26.8881 27.3231C26.9126 27.3486 26.9311 27.3794 26.9422 27.413C26.9533 27.4466 26.9568 27.4823 26.9523 27.5175C26.9478 27.5526 26.9354 27.5863 26.9162 27.616C27.0081 27.5841 27.1058 27.5725 27.2026 27.582C27.2786 27.6013 27.3457 27.6459 27.3929 27.7085C27.3929 27.7085 27.4641 27.8323 27.4405 27.9025C27.4179 27.9692 27.3015 27.9801 27.2848 28.0537C27.2675 28.126 27.2613 28.2004 27.2665 28.2744C27.3001 28.3497 27.3192 28.4307 27.3228 28.5131C27.3154 28.6244 27.29 28.7338 27.2477 28.837C27.2953 28.8842 27.3324 28.9409 27.3567 29.0034C27.3854 29.0979 27.4015 29.1959 27.4045 29.2946C27.4386 29.3986 27.4565 29.5071 27.4576 29.6165C27.4648 29.7776 27.3743 29.9875 27.3748 30.1696C27.3764 30.3458 27.4069 30.5205 27.4651 30.6868C27.4138 30.6426 27.3685 30.592 27.3301 30.5363C27.2855 30.4686 27.2462 30.3975 27.2125 30.3238C27.2073 30.4296 27.2171 30.5356 27.2415 30.6387C27.2835 30.778 27.3402 30.9124 27.4105 31.0397C27.3501 31.0611 27.2858 31.0689 27.222 31.0627C27.1243 31.0441 27.0295 31.0124 26.9401 30.9686C26.9741 31.0922 27.0217 31.2115 27.0821 31.3246C27.1503 31.4398 27.2323 31.5464 27.3261 31.6419C27.2294 31.6129 27.141 31.5613 27.0683 31.4912C26.9672 31.3841 26.879 31.2655 26.8056 31.1378C26.7989 31.2561 26.7823 31.3735 26.7558 31.4889C26.7262 31.6033 26.6849 31.7144 26.6325 31.8203C26.6598 31.7376 26.6715 31.6505 26.6668 31.5636C26.6599 31.5237 26.6444 31.4859 26.6212 31.4528C26.598 31.4197 26.5678 31.3921 26.5327 31.372C26.4409 31.3204 26.4735 31.6481 26.4735 31.6481C26.4402 31.558 26.4191 31.4637 26.4109 31.368C26.3743 31.4536 26.3496 31.5439 26.3376 31.6363C26.3564 31.2826 26.1733 31.4156 26.1733 31.4156C26.1395 31.4313 26.1108 31.4563 26.0907 31.4877C26.0705 31.519 26.0596 31.5555 26.0594 31.5928C26.0594 31.5928 26.0918 31.9171 26.1263 32.1879C26.1583 32.4464 26.1929 32.6511 26.1954 32.6816C26.2003 32.7444 27.0147 32.8066 27.1151 32.817C27.2798 32.8113 27.4448 32.8191 27.6082 32.8405C27.8497 32.883 27.7836 32.9503 27.6468 32.9737C27.5022 32.9973 27.3552 33.0017 27.2095 32.987C27.1313 32.9703 27.1579 33.02 27.0928 33.0455C27.0274 33.0715 26.5192 33.0545 26.3895 33.0779C26.1282 33.0985 25.8653 33.0755 25.6115 33.0099C25.5048 32.9787 25.4858 32.6931 25.4858 32.6931C25.4858 32.6931 25.3707 32.3377 25.2196 31.8705C25.0831 31.448 24.9162 30.9337 24.7794 30.509C24.6152 29.9996 24.5058 29.6561 24.5058 29.6561C24.5058 29.6561 24.5167 30.029 24.5069 30.435C24.4841 30.7686 24.4784 31.1031 24.4898 31.4372C24.5354 31.9885 24.6248 32.5352 24.7572 33.0722C24.7721 33.1562 24.8074 33.2353 24.86 33.3025C24.9126 33.3697 24.981 33.4229 25.0591 33.4575C25.1228 33.4805 25.7057 33.6073 25.8215 33.5762C25.8993 33.5583 25.9799 33.5563 26.0584 33.5705C26.0584 33.5705 26.1348 33.6284 26.1843 33.658C26.2336 33.6876 26.2453 33.7645 26.0939 33.7939C25.9424 33.8241 25.5568 33.7799 25.3852 33.7741C25.2525 33.769 25.1198 33.7811 24.9902 33.81C24.8865 33.8138 24.7826 33.8061 24.6806 33.7868C25.035 34.3517 25.4375 34.7967 25.8863 35.0843C29.5195 37.4126 36.0297 33.7372 40.4272 26.8751C44.4979 20.523 45.891 12.2295 42.675 10.5164ZM36.3933 22.8604C36.2305 22.6515 36.0328 22.4723 35.809 22.3306C35.4574 22.115 35.0527 22.0013 34.6403 22.0023C34.14 21.9931 33.6528 22.1618 33.2654 22.4784C32.7727 22.88 32.5263 23.4306 32.5263 24.1303C32.5263 24.8263 32.7727 25.3751 33.2654 25.7766C33.6527 26.0932 34.14 26.2619 34.6403 26.2526C35.0527 26.2537 35.4574 26.14 35.809 25.9244C36.033 25.7831 36.2308 25.6038 36.3933 25.3946V27.8258C35.8097 28.0722 35.1847 28.2061 34.5513 28.2204C33.5867 28.2273 32.6506 27.893 31.9086 27.2766C30.9169 26.472 30.4211 25.4232 30.4212 24.1303C30.4212 22.8337 30.917 21.7831 31.9086 20.9784C32.6562 20.3599 33.5983 20.0256 34.5685 20.0346C35.11 20.0346 35.7183 20.1661 36.3933 20.4293L36.3933 22.8604Z" fill="#0052A4"/>
<path fill-rule="evenodd" clip-rule="evenodd" d="M26.7654 7.10478C26.7654 6.62913 26.5202 6.34931 26.03 6.26531C25.764 6.23552 25.4964 6.22346 25.2288 6.22921H24.7924V7.95631H25.2647C25.8067 7.95631 26.1853 7.89235 26.4006 7.76443C26.5168 7.69936 26.6126 7.60313 26.677 7.48658C26.7414 7.37003 26.772 7.23779 26.7654 7.10478Z" fill="#006BB6"/>
<path fill-rule="evenodd" clip-rule="evenodd" d="M25.9687 4.34019C26.0973 4.19272 26.1656 4.0021 26.1597 3.80647C26.1597 3.43464 25.9925 3.18878 25.6581 3.06891C25.503 3.02415 25.3418 3.00391 25.1805 3.00893H24.7924V4.61011H25.1805C25.5467 4.61011 25.8094 4.52014 25.9687 4.34019Z" fill="#006BB6"/>
<path fill-rule="evenodd" clip-rule="evenodd" d="M8.31303 9.65536C8.39181 9.58887 8.47694 9.53028 8.56718 9.48044C8.56718 9.48044 8.94626 9.26196 9.14176 9.35888C9.35961 9.46648 9.51919 9.77077 9.657 9.95129C9.71243 10.0301 9.78901 10.0916 9.87789 10.1287C10.2815 10.1982 10.6891 10.2429 11.0982 10.2625C11.997 10.317 12.9252 10.1737 14.396 10.5635C15.1311 10.7587 15.7581 11.0788 16.2127 11.301C16.4295 11.4105 16.6572 11.4969 16.892 11.5589C16.901 11.5487 16.9126 11.5413 16.9255 11.5373C16.9385 11.5333 16.9523 11.533 16.9654 11.5363C16.998 11.5413 17.0387 11.5967 17.0906 11.6048C17.2025 11.6223 17.369 11.5214 17.5579 11.5507C17.7252 11.5767 18.0145 11.7428 18.2296 11.7772C18.3152 11.7914 18.4197 11.7504 18.5111 11.7652C18.7316 11.8001 19.595 11.7408 19.8431 11.7806C20.4264 11.8743 21.2732 12.0513 22.0932 12.1567C22.761 12.2421 23.4159 12.2547 23.8498 12.3436C25.1261 12.6057 25.2502 12.8532 25.2502 12.8532C25.5938 12.7489 25.9435 12.6653 26.2972 12.6029C26.0696 12.6466 26.4856 12.5485 26.8598 12.5163C27.1546 12.491 27.3384 12.5459 27.7465 12.4735C28.1635 12.3992 28.4802 12.2978 28.814 12.2114C29.2307 12.1041 29.6187 12.0187 29.6187 12.0187C29.6187 12.0187 30.4034 11.8234 31.1078 11.7334C31.5462 11.6772 31.9961 11.6148 32.1819 11.6181C32.1904 11.6174 32.1989 11.6187 32.2069 11.6217C32.2149 11.6248 32.2221 11.6295 32.228 11.6356C32.2339 11.6418 32.2384 11.6491 32.2412 11.6572C32.244 11.6653 32.2449 11.6739 32.244 11.6823C32.244 11.6823 32.2965 11.7224 32.4425 11.6962C32.5555 11.6651 32.6722 11.6493 32.7894 11.6495C32.9189 11.6586 33.1303 11.713 33.2959 11.7124C33.7154 11.7096 34.1339 11.6707 34.5467 11.596C35.0345 11.5067 35.5441 11.3748 36.0558 11.2666C36.6728 11.1358 37.2837 11.0272 37.7399 10.9002C38.0872 10.8106 38.4253 10.6889 38.75 10.5364C38.75 10.5364 39.5067 10.1483 39.8938 10.033C40.4647 9.86918 41.0473 9.749 41.6365 9.67349C41.7363 9.63497 41.8402 9.60813 41.9462 9.59349C41.969 9.59095 41.992 9.58902 42.0148 9.58752C42.0588 9.51673 42.102 9.44557 42.1438 9.37372C44.4212 5.4585 34.0865 0.287493 24.2679 0.0149617C14.4493 -0.257569 6.38676 3.22569 6.25995 7.79519C6.23629 8.64867 6.51142 9.43922 7.03822 10.1625C7.28822 10.1658 7.53716 10.1294 7.77573 10.0547C7.95191 9.99493 8.14649 9.79691 8.31303 9.65536ZM22.6634 1.38968H25.8298C27.365 1.38968 28.1326 2.10131 28.1326 3.52458C28.1457 3.89843 28.0588 4.269 27.8807 4.598C27.7233 4.85909 27.4999 5.07418 27.2331 5.22169C27.8864 5.35768 28.3325 5.61955 28.5715 6.0073C28.792 6.38324 28.9037 6.81302 28.8942 7.24873C28.8942 7.86035 28.7203 8.35807 28.3725 8.74188C27.8687 9.29772 27.1011 9.5756 26.0697 9.57552H22.6634V1.38968Z" fill="#006BB6"/>
<path fill-rule="evenodd" clip-rule="evenodd" d="M11.0276 25.1739H12.8026L11.9211 22.5653L11.0276 25.1739Z" fill="#008AD0"/>
<path fill-rule="evenodd" clip-rule="evenodd" d="M23.7361 33.0992C23.7361 33.0992 23.6272 32.6346 23.4962 32.0421C23.4022 31.616 23.3276 31.0835 23.2429 30.6998C23.1916 30.4622 23.1281 30.2274 23.0524 29.9963C23.0109 29.7517 22.9833 29.5048 22.97 29.257C22.9615 29.0043 22.9674 28.7512 22.9876 28.4992C22.9894 28.4436 22.988 28.0681 22.9765 27.9772C22.9653 27.8867 22.7678 27.5739 22.7199 27.5096C22.6674 27.4277 22.6246 27.34 22.5923 27.2482C22.573 27.1917 22.6108 27.1237 22.6348 27.0548C22.6586 26.9862 22.5306 26.9612 22.5173 26.9326C22.4871 26.8901 22.4493 26.8536 22.4059 26.8247C22.3575 26.7886 22.2031 26.6788 22.1545 26.6427C22.098 26.609 22.0484 26.5648 22.0085 26.5125C21.9809 26.463 22.057 26.3403 22.115 26.3145C22.1734 26.2885 22.2826 26.2225 22.2826 26.2225C22.2696 26.1729 22.2495 26.1255 22.2231 26.0816C22.1824 26.0178 22.263 25.9646 22.263 25.9646C22.2677 25.9226 22.2643 25.88 22.2529 25.8392C22.2335 25.7691 22.2631 25.7495 22.2141 25.7058C22.1653 25.6626 22.1687 25.5581 22.1935 25.4756C22.2015 25.4093 22.1859 25.3423 22.1493 25.2864C22.1493 25.2864 21.9915 25.1581 22.0963 25.0245C22.3381 24.7162 22.9783 24.8202 23.0939 24.6783C23.1204 24.6458 23.1013 24.5317 22.7226 24.3631C22.4786 24.2551 22.243 24.1294 22.0175 23.9868C21.5913 23.7054 21.606 23.6158 21.5551 23.563C21.4652 23.4699 21.4181 22.9467 21.3564 22.8681C21.2945 22.7896 21.2903 22.7059 21.2366 22.5933C21.1831 22.4799 21.2774 22.4483 21.2022 22.3484C21.1262 22.2485 21.1853 22.2019 21.1881 22.1187C21.1934 22.0353 21.168 21.9528 21.1168 21.8868C21.0556 21.7944 21.1266 21.8036 21.1348 21.7689C21.1434 21.7347 21.0745 21.6627 21.0063 21.5494C20.9387 21.4357 21.0228 21.4941 21.0403 21.3976C21.0578 21.3008 20.9936 21.2845 21.0255 21.1953C21.0573 21.106 21.1017 20.4124 21.1038 20.3496C21.0311 19.9862 20.9904 19.6171 20.9821 19.2466C20.993 18.7816 21.0422 18.3182 21.1294 17.8612C21.1294 17.8612 21.0374 17.2825 21.0783 17.0855C21.129 16.8321 21.2505 16.5983 21.4287 16.4112C21.4287 16.4112 21.3207 16.2968 21.3362 16.2113C21.3702 16.1002 21.4324 15.9999 21.5169 15.9202C21.4897 15.8614 21.4729 15.7984 21.4669 15.734C21.4573 15.6578 21.4996 15.59 21.4952 15.5106C21.4884 15.4328 21.4691 15.3565 21.4379 15.2849C21.4379 15.2849 21.2439 15.2432 20.9933 15.1624C20.7838 15.0944 20.5352 14.9905 20.325 14.9393C20.1799 14.9042 20.0301 14.893 19.8814 14.9061C19.8814 14.9061 19.7118 14.951 19.4639 15.022C19.296 15.0871 19.1206 15.1311 18.9419 15.1528C18.6206 15.1665 18.257 15.1111 17.9124 15.0954C17.2174 15.0643 16.6037 15.0472 16.6037 15.0472C16.6037 15.0472 16.4642 15.0289 16.4532 14.9609C16.3676 14.4353 16.4228 13.6013 16.4228 13.6013C16.4228 13.6013 16.2004 13.484 15.8395 13.2627C15.6654 13.1556 15.4882 12.9722 15.2329 12.8656C14.5553 12.5833 13.5668 12.3987 12.6515 12.1364C11.9206 11.9272 11.1909 11.6942 10.5395 11.5808C9.96153 11.4784 9.37626 11.4226 8.78935 11.4138C8.32131 11.3844 7.85689 11.3126 7.40176 11.1995C7.0314 11.1057 6.66704 10.9896 6.31066 10.8519C6.22394 10.8097 6.13995 10.7621 6.05916 10.7094C5.99884 10.6806 5.9358 10.6579 5.87098 10.6416C5.84562 10.6303 5.82298 10.6137 5.80459 10.5929C5.7862 10.5721 5.77249 10.5477 5.7644 10.5211C5.74779 10.4624 5.73934 10.4017 5.73929 10.3407C5.00652 10.3567 4.28192 10.4982 3.59694 10.759C-1.41238 12.7737 -0.988327 21.95 3.62081 29.4257C8.22995 36.9014 15.3405 39.9928 20.2881 37.8309C22.0315 37.0691 23.206 35.5768 23.9383 33.67C23.8855 33.6616 23.8346 33.644 23.788 33.618C23.7323 33.5776 23.7361 33.0992 23.7361 33.0992ZM13.9061 28.2205L13.3784 26.7933H10.4399L9.87616 28.2205H7.62731L10.7757 20.0347H13.0965L16.1789 28.2205H13.9061Z" fill="#008AD0"/>
</svg>
