<svg width="46" height="46" viewBox="0 0 46 46" fill="none" xmlns="http://www.w3.org/2000/svg">
<path d="M41.5078 3.95312H37.2252V2.69531C37.2252 1.20912 36.0161 0 34.5299 0C33.0437 0 31.8346 1.20912 31.8346 2.69531V3.95312H16.7409V2.69531C16.7409 1.20912 15.5317 0 14.0455 0C12.5593 0 11.3502 1.20912 11.3502 2.69531V3.98637C11.2739 3.96525 11.1938 3.95312 11.1107 3.95312H7.53097C5.05398 3.95312 3.03879 5.96832 3.03879 8.44531V23.7487C3.03879 24.2449 3.44111 24.6471 3.93722 24.6471C4.43334 24.6471 4.83566 24.2449 4.83566 23.7487V13.207H37.2252C37.7213 13.207 38.1237 12.8048 38.1237 12.3086C38.1237 11.8124 37.7213 11.4102 37.2252 11.4102H4.83566V8.44531C4.83566 6.95912 6.04478 5.75 7.53097 5.75H11.1107C11.1938 5.75 11.2739 5.73778 11.3502 5.71676V6.87305C11.3502 8.35924 12.5593 9.56836 14.0455 9.56836C15.5317 9.56836 16.7409 8.35924 16.7409 6.87305V5.75H31.8346V6.87305C31.8346 8.35924 33.0437 9.56836 34.5299 9.56836C36.0161 9.56836 37.2252 8.35924 37.2252 6.87305V5.75H41.5078C42.994 5.75 44.2031 6.95912 44.2031 8.44531V42.5854C44.2031 43.4774 43.4775 44.2031 42.5854 44.2031C41.6933 44.2031 40.9677 43.4774 40.9677 42.5854V40.2612C40.9677 39.765 40.5654 39.3628 40.0692 39.3628H29.6185C29.1224 39.3628 28.7201 39.765 28.7201 40.2612C28.7201 40.7574 29.1224 41.1597 29.6185 41.1597H39.1708V42.5854C39.1708 43.1704 39.3189 43.7213 39.5791 44.2031H3.41406C2.52236 44.2031 1.79688 43.4776 1.79688 42.5859V41.1597H21.9062C22.4023 41.1597 22.8046 40.7574 22.8046 40.2612C22.8046 39.765 22.4023 39.3628 21.9062 39.3628H12.9293C14.4993 38.0107 15.4962 36.0108 15.4962 33.7812C15.4962 29.719 12.1913 26.4141 8.12897 26.4141C4.06669 26.4141 0.761785 29.719 0.761785 33.7812C0.761785 36.0108 1.75869 38.0107 3.32862 39.3628H0.898438C0.40232 39.3628 0 39.765 0 40.2612V42.5859C0 44.4684 1.53157 46 3.41406 46H42.5854C44.4682 46 46 44.4683 46 42.5854V8.44531C46 5.96832 43.9848 3.95312 41.5078 3.95312ZM14.944 6.87305C14.944 7.36845 14.5409 7.77148 14.0455 7.77148C13.5501 7.77148 13.1471 7.36845 13.1471 6.87305V2.69531C13.1471 2.19991 13.5501 1.79688 14.0455 1.79688C14.5409 1.79688 14.944 2.19991 14.944 2.69531V6.87305ZM35.4284 6.87305C35.4284 7.36845 35.0253 7.77148 34.5299 7.77148C34.0345 7.77148 33.6315 7.36845 33.6315 6.87305V2.69531C33.6315 2.19991 34.0345 1.79688 34.5299 1.79688C35.0253 1.79688 35.4284 2.19991 35.4284 2.69531V6.87305ZM2.55866 33.7812C2.55866 30.7098 5.05748 28.2109 8.12897 28.2109C11.2005 28.2109 13.6993 30.7098 13.6993 33.7812C13.6993 36.8527 11.2005 39.3516 8.12897 39.3516C5.05748 39.3516 2.55866 36.8527 2.55866 33.7812Z" fill="#0451A5"/>
<path d="M42.0747 11.6734C41.9077 11.5063 41.6759 11.4102 41.4396 11.4102C41.2032 11.4102 40.9715 11.5063 40.8044 11.6734C40.6373 11.8405 40.5411 12.0723 40.5411 12.3086C40.5411 12.5449 40.6372 12.7767 40.8044 12.9438C40.9716 13.1109 41.2032 13.207 41.4396 13.207C41.6759 13.207 41.9077 13.1109 42.0747 12.9438C42.2418 12.7767 42.338 12.5449 42.338 12.3086C42.338 12.0723 42.2419 11.8405 42.0747 11.6734Z" fill="#0451A5"/>
<path d="M26.8318 39.6256C26.6647 39.4585 26.4329 39.3632 26.1967 39.3632C25.9604 39.3632 25.7286 39.4585 25.5615 39.6256C25.3944 39.7936 25.2982 40.0245 25.2982 40.2608C25.2982 40.498 25.3943 40.7289 25.5615 40.8969C25.7286 41.064 25.9604 41.1592 26.1967 41.1592C26.4329 41.1592 26.6647 41.064 26.8318 40.8969C26.9989 40.7289 27.0951 40.4971 27.0951 40.2608C27.0951 40.0245 26.999 39.7936 26.8318 39.6256Z" fill="#0451A5"/>
<path d="M20.3267 27.3125C18.4442 27.3125 16.9126 28.8441 16.9126 30.7266C16.9126 32.6091 18.4442 34.1406 20.3267 34.1406C22.2092 34.1406 23.7407 32.6091 23.7407 30.7266C23.7407 28.8441 22.2092 27.3125 20.3267 27.3125ZM20.3267 32.3438C19.435 32.3438 18.7095 31.6183 18.7095 30.7266C18.7095 29.8349 19.435 29.1094 20.3267 29.1094C21.2184 29.1094 21.9438 29.8349 21.9438 30.7266C21.9438 31.6183 21.2184 32.3438 20.3267 32.3438Z" fill="#0451A5"/>
<path d="M28.712 27.3125C26.8295 27.3125 25.298 28.8441 25.298 30.7266C25.298 32.6091 26.8295 34.1406 28.712 34.1406C30.5945 34.1406 32.1261 32.6091 32.1261 30.7266C32.1261 28.8441 30.5945 27.3125 28.712 27.3125ZM28.712 32.3438C27.8203 32.3438 27.0948 31.6183 27.0948 30.7266C27.0948 29.8349 27.8203 29.1094 28.712 29.1094C29.6037 29.1094 30.3292 29.8349 30.3292 30.7266C30.3292 31.6183 29.6037 32.3438 28.712 32.3438Z" fill="#0451A5"/>
<path d="M37.0975 27.3125C35.215 27.3125 33.6835 28.8441 33.6835 30.7266C33.6835 32.6091 35.215 34.1406 37.0975 34.1406C38.98 34.1406 40.5116 32.6091 40.5116 30.7266C40.5116 28.8441 38.98 27.3125 37.0975 27.3125ZM37.0975 32.3438C36.2058 32.3438 35.4803 31.6183 35.4803 30.7266C35.4803 29.8349 36.2058 29.1094 37.0975 29.1094C37.9892 29.1094 38.7147 29.8349 38.7147 30.7266C38.7147 31.6183 37.9892 32.3438 37.0975 32.3438Z" fill="#0451A5"/>
<path d="M11.9413 17.9688C10.0588 17.9688 8.52722 19.5003 8.52722 21.3828C8.52722 23.2653 10.0588 24.7969 11.9413 24.7969C13.8238 24.7969 15.3553 23.2653 15.3553 21.3828C15.3553 19.5003 13.8238 17.9688 11.9413 17.9688ZM11.9413 23C11.0496 23 10.3241 22.2745 10.3241 21.3828C10.3241 20.4911 11.0496 19.7656 11.9413 19.7656C12.833 19.7656 13.5585 20.4911 13.5585 21.3828C13.5585 22.2745 12.833 23 11.9413 23Z" fill="#0451A5"/>
<path d="M28.712 17.9688C26.8295 17.9688 25.298 19.5003 25.298 21.3828C25.298 23.2653 26.8295 24.7969 28.712 24.7969C30.5945 24.7969 32.1261 23.2653 32.1261 21.3828C32.1261 19.5003 30.5945 17.9688 28.712 17.9688ZM28.712 23C27.8203 23 27.0948 22.2745 27.0948 21.3828C27.0948 20.4911 27.8203 19.7656 28.712 19.7656C29.6037 19.7656 30.3292 20.4911 30.3292 21.3828C30.3292 22.2745 29.6037 23 28.712 23Z" fill="#0451A5"/>
<path d="M37.0975 17.9688C35.215 17.9688 33.6835 19.5003 33.6835 21.3828C33.6835 23.2653 35.215 24.7969 37.0975 24.7969C38.98 24.7969 40.5116 23.2653 40.5116 21.3828C40.5116 19.5003 38.98 17.9688 37.0975 17.9688ZM37.0975 23C36.2058 23 35.4803 22.2745 35.4803 21.3828C35.4803 20.4911 36.2058 19.7656 37.0975 19.7656C37.9892 19.7656 38.7147 20.4911 38.7147 21.3828C38.7147 22.2745 37.9892 23 37.0975 23Z" fill="#0451A5"/>
<path d="M20.3267 17.9688C18.4442 17.9688 16.9126 19.5003 16.9126 21.3828C16.9126 23.2653 18.4442 24.7969 20.3267 24.7969C22.2092 24.7969 23.7407 23.2653 23.7407 21.3828C23.7407 19.5003 22.2092 17.9688 20.3267 17.9688ZM20.3267 23C19.435 23 18.7095 22.2745 18.7095 21.3828C18.7095 20.4911 19.435 19.7656 20.3267 19.7656C21.2184 19.7656 21.9438 20.4911 21.9438 21.3828C21.9438 22.2745 21.2184 23 20.3267 23Z" fill="#0451A5"/>
<path d="M11.3297 31.5917C10.9787 31.2408 10.41 31.2408 10.059 31.5917L7.13315 34.5176L6.13328 33.5177C5.78235 33.1669 5.21364 33.1669 4.86262 33.5177C4.51178 33.8686 4.51178 34.4375 4.86262 34.7884L6.49786 36.4235C6.66641 36.5919 6.89488 36.6866 7.13315 36.6866C7.37141 36.6866 7.59989 36.5919 7.76843 36.4235L11.3297 32.8622C11.6805 32.5114 11.6805 31.9425 11.3297 31.5917Z" fill="#0451A5"/>
</svg>
