<svg width="28" height="28" viewBox="0 0 28 28" fill="none" xmlns="http://www.w3.org/2000/svg">
<path d="M25.4546 2.54548H21.6364V0.636384C21.6364 0.284634 21.3518 0 21 0C20.6483 0 20.3636 0.284634 20.3636 0.636384V2.54548H8.90908V0.636384C8.90908 0.284634 8.62444 0 8.27275 0C7.92106 0 7.63637 0.284634 7.63637 0.636384V2.54548H2.54548C1.14223 2.54548 0 3.68705 0 5.09089V25.4545C0 26.8584 1.14223 28 2.54548 28H20.9988V27.9998L21.0001 28C21.1654 28 21.3282 27.9354 21.45 27.8136L27.8137 21.4499C27.935 21.3281 27.9752 21.1655 27.9754 21H28.0001V5.09089C28 3.68705 26.8578 2.54548 25.4546 2.54548ZM21.6364 25.8275V22.9091C21.6364 22.2075 22.2069 21.6364 22.9091 21.6364H25.8275L21.6364 25.8275ZM26.7273 20.3636H22.9091C21.5059 20.3636 20.3636 21.5052 20.3636 22.9091V26.7273H2.54548C1.84323 26.7273 1.27277 26.1562 1.27277 25.4546V10.1818H26.7273V20.3636ZM26.7273 8.90908H1.27271V5.09089C1.27271 4.3893 1.84323 3.81818 2.54548 3.81818H7.63637V5.09089C6.93412 5.09089 6.36366 5.66201 6.36366 6.3636C6.36366 7.06519 6.93412 7.63637 7.63637 7.63637C8.33862 7.63637 8.90908 7.06525 8.90908 6.36366V3.81818H20.3636V5.09089C19.6614 5.09089 19.0909 5.66201 19.0909 6.3636C19.0909 7.06519 19.6614 7.63637 20.3636 7.63637C21.0658 7.63637 21.6363 7.06525 21.6363 6.36366V3.81818H25.4545C26.1568 3.81818 26.7273 4.3893 26.7273 5.09089V8.90908Z" fill="#006BB7"/>
<path d="M11.4547 21.6364C10.7524 21.6364 10.1819 21.0653 10.1819 20.3637C10.1819 20.012 9.89731 19.7273 9.54556 19.7273C9.19381 19.7273 8.90918 20.012 8.90918 20.3637C8.90918 21.7676 10.0514 22.9091 11.4547 22.9091C12.8579 22.9091 14.0001 21.7676 14.0001 20.3637C14.0001 19.6043 13.6658 18.9213 13.1363 18.4546C13.6658 17.9879 14.0001 17.3049 14.0001 16.5455C14.0001 15.1416 12.8579 14 11.4547 14C10.0514 14 8.90918 15.1416 8.90918 16.5455C8.90918 16.8972 9.19381 17.1819 9.54556 17.1819C9.89731 17.1819 10.1819 16.8972 10.1819 16.5455C10.1819 15.8439 10.7525 15.2728 11.4547 15.2728C12.1569 15.2728 12.7274 15.8439 12.7274 16.5455C12.7274 17.2471 12.1568 17.8182 11.4547 17.8182C11.1029 17.8182 10.8183 18.1028 10.8183 18.4546C10.8183 18.8063 11.1029 19.091 11.4547 19.091C12.1569 19.091 12.7274 19.6621 12.7274 20.3637C12.7274 21.0653 12.1569 21.6364 11.4547 21.6364Z" fill="#006BB7"/>
<path d="M15.9108 15.274C15.9108 15.274 15.9108 15.274 15.9121 15.274L16.5459 15.2734V22.2728C16.5459 22.6245 16.8306 22.9091 17.1823 22.9091C17.5341 22.9091 17.8187 22.6245 17.8187 22.2728V14.6364C17.8187 14.4674 17.7516 14.3058 17.6323 14.1864C17.5129 14.0671 17.3514 14 17.1823 14C17.1823 14 17.1823 14 17.1811 14L15.9108 14.0013C15.559 14.0018 15.2744 14.2865 15.2744 14.6382C15.2745 14.9893 15.5591 15.274 15.9108 15.274Z" fill="#006BB7"/>
</svg>
