<svg width="26" height="26" viewBox="0 0 26 26" fill="none" xmlns="http://www.w3.org/2000/svg">
<path d="M22.1924 3.80763C19.737 1.3522 16.4724 0 13 0C9.52758 0 6.263 1.3522 3.80758 3.80763C1.35225 6.263 0 9.52758 0 13C0 16.4724 1.35225 19.737 3.80758 22.1924C6.263 24.6478 9.52758 26 13 26C16.4724 26 19.737 24.6478 22.1924 22.1924C24.6477 19.737 26 16.4724 26 13C26 9.52758 24.6477 6.263 22.1924 3.80763ZM13 24.9844C6.39179 24.9844 1.01562 19.6082 1.01562 13C1.01562 6.39179 6.39179 1.01562 13 1.01562C19.6082 1.01562 24.9844 6.39179 24.9844 13C24.9844 19.6082 19.6082 24.9844 13 24.9844Z" fill="#0451A5"/>
<path d="M23.7718 10.9156C23.0873 7.35867 20.689 4.37344 17.3562 2.93013C17.0989 2.81867 16.7999 2.93699 16.6884 3.1943C16.577 3.45166 16.6953 3.75066 16.9526 3.86207C19.9771 5.17187 22.1535 7.88044 22.7745 11.1075C22.8213 11.3505 23.034 11.5195 23.2727 11.5195C23.3044 11.5195 23.3367 11.5165 23.3691 11.5102C23.6445 11.4573 23.8248 11.191 23.7718 10.9156Z" fill="#0451A5"/>
<path d="M15.3576 2.2854L15.3443 2.28251C15.0703 2.2234 14.8 2.39778 14.741 2.672C14.6819 2.94617 14.8563 3.21627 15.1305 3.27533L15.1364 3.27665C15.1737 3.28498 15.2109 3.28894 15.2475 3.28894C15.4801 3.28894 15.6899 3.12806 15.7426 2.89163C15.8037 2.61786 15.6313 2.34649 15.3576 2.2854Z" fill="#0451A5"/>
<path d="M9.16201 22.1869C6.07517 20.8961 3.85588 18.1693 3.22533 14.8926C3.17236 14.6172 2.90647 14.4366 2.63073 14.4899C2.35529 14.5429 2.17502 14.8091 2.22798 15.0845C2.56979 16.8604 3.35878 18.5418 4.50984 19.9468C5.64759 21.3355 7.12081 22.4341 8.77018 23.1239C8.83417 23.1507 8.90059 23.1633 8.96589 23.1633C9.1645 23.1633 9.35315 23.046 9.43455 22.8513C9.54277 22.5926 9.42074 22.2951 9.16201 22.1869Z" fill="#0451A5"/>
<path d="M10.8721 22.7249L10.8407 22.718C10.5672 22.6572 10.2957 22.8298 10.2349 23.1035C10.174 23.3773 10.3466 23.6486 10.6204 23.7094L10.656 23.7172C10.6924 23.7251 10.7288 23.7289 10.7646 23.7289C10.9982 23.7289 11.2085 23.5667 11.2602 23.3291C11.3199 23.0551 11.1461 22.7846 10.8721 22.7249Z" fill="#0451A5"/>
<path d="M23.3301 14.7415C23.0564 14.6817 22.7856 14.8556 22.7258 15.1296C21.8779 19.0207 18.8035 22.0212 14.8934 22.7736C14.618 22.8266 14.4377 23.0928 14.4907 23.3682C14.5374 23.6112 14.7502 23.7802 14.9888 23.7802C15.0206 23.7802 15.053 23.7772 15.0853 23.7709C17.1929 23.3654 19.1225 22.3541 20.6657 20.8464C22.2065 19.341 23.2621 17.4389 23.7181 15.3457C23.7778 15.0717 23.6041 14.8012 23.3301 14.7415Z" fill="#0451A5"/>
<path d="M11.5087 2.63174C11.4557 2.35635 11.1895 2.17577 10.9141 2.22904C8.80655 2.63458 6.87687 3.64589 5.33368 5.15359C3.79287 6.659 2.73733 8.56106 2.28127 10.6542C2.2216 10.9282 2.39532 11.1987 2.66934 11.2585C2.70575 11.2664 2.74216 11.2702 2.77796 11.2702C3.0116 11.2702 3.22189 11.108 3.27363 10.8704C4.12153 6.97922 7.19593 3.97876 11.106 3.22634C11.3814 3.17337 11.5617 2.90713 11.5087 2.63174Z" fill="#0451A5"/>
<path d="M13 11.2734C12.048 11.2734 11.2734 12.048 11.2734 13C11.2734 13.952 12.048 14.7266 13 14.7266C13.952 14.7266 14.7266 13.952 14.7266 13C14.7266 12.048 13.952 11.2734 13 11.2734ZM13 13.7109C12.608 13.7109 12.2891 13.392 12.2891 13C12.2891 12.608 12.608 12.2891 13 12.2891C13.392 12.2891 13.7109 12.608 13.7109 13C13.7109 13.392 13.392 13.7109 13 13.7109Z" fill="#0451A5"/>
<path d="M13.0088 2.03125C12.7284 2.03125 12.501 2.2586 12.501 2.53906V3.67697C12.501 3.95743 12.7284 4.18478 13.0088 4.18478C13.2893 4.18478 13.5166 3.95743 13.5166 3.67697V2.53906C13.5166 2.2586 13.2892 2.03125 13.0088 2.03125Z" fill="#0451A5"/>
<path d="M12.9912 21.4531C12.7108 21.4531 12.4834 21.6805 12.4834 21.9609V23.4608C12.4834 23.7413 12.7108 23.9686 12.9912 23.9686C13.2716 23.9686 13.499 23.7413 13.499 23.4608V21.9609C13.499 21.6805 13.2716 21.4531 12.9912 21.4531Z" fill="#0451A5"/>
<path d="M23.4609 12.4998H22.0898C21.8094 12.4998 21.582 12.7271 21.582 13.0076C21.582 13.288 21.8094 13.5154 22.0898 13.5154H23.4609C23.7414 13.5154 23.9688 13.288 23.9688 13.0076C23.9688 12.7271 23.7414 12.4998 23.4609 12.4998Z" fill="#0451A5"/>
<path d="M4.01172 12.4846H2.53906C2.25865 12.4846 2.03125 12.712 2.03125 12.9924C2.03125 13.2729 2.25865 13.5002 2.53906 13.5002H4.01172C4.29213 13.5002 4.51953 13.2729 4.51953 12.9924C4.51953 12.712 4.29213 12.4846 4.01172 12.4846Z" fill="#0451A5"/>
<path d="M11.7809 12.4922H9.46191C9.1815 12.4922 8.9541 12.7195 8.9541 13C8.9541 13.2805 9.1815 13.5078 9.46191 13.5078H11.7809C12.0614 13.5078 12.2888 13.2805 12.2888 13C12.2888 12.7195 12.0614 12.4922 11.7809 12.4922Z" fill="#0451A5"/>
<path d="M13 6.51697C12.7196 6.51697 12.4922 6.74432 12.4922 7.02478V11.7813C12.4922 12.0618 12.7196 12.2891 13 12.2891C13.2804 12.2891 13.5078 12.0618 13.5078 11.7813V7.02478C13.5078 6.74432 13.2804 6.51697 13 6.51697Z" fill="#0451A5"/>
</svg>
