<svg width="26" height="26" viewBox="0 0 26 26" fill="none" xmlns="http://www.w3.org/2000/svg">
<path d="M12.9899 0C16.577 0 19.8248 1.45864 22.1825 3.80683C24.5307 6.16508 25.9893 9.41288 25.9893 13C25.9893 16.5871 24.5307 19.8349 22.1825 22.1932C19.8242 24.5414 16.577 26 12.9899 26C9.40281 26 6.15564 24.5414 3.80746 22.1932C1.4492 19.8349 0 16.5877 0 13C0 9.41288 1.44857 6.16508 3.80683 3.80683C6.15564 1.45864 9.40281 0 12.9899 0ZM19.6152 12.2905C20.0049 12.2905 20.3146 12.6103 20.3146 13C20.3146 13.3897 20.0049 13.7095 19.6152 13.7095H13.0101H12.9899C12.7299 13.7095 12.5001 13.5597 12.3805 13.35L12.3705 13.34L12.3604 13.3198V13.3097L12.3503 13.2896L12.3402 13.2694V13.2594L12.3302 13.2392L12.3201 13.2292V13.209L12.31 13.1889V13.1788L12.3 13.1586V13.1385V13.1284V13.1184L12.2899 13.1083V13.0881V13.068V13.0504V13.0403V13.0201V13V4.53646C12.2899 4.14678 12.5996 3.83705 12.9893 3.83705C13.379 3.83705 13.6988 4.14678 13.6988 4.53646V12.2905H19.6152ZM21.1834 4.80654C19.0851 2.70828 16.1874 1.41898 12.9899 1.41898C9.79249 1.41898 6.89472 2.70765 4.79646 4.80654C2.70828 6.90479 1.40891 9.80257 1.40891 13C1.40891 16.1974 2.70765 19.0952 4.79646 21.1941C6.89472 23.2923 9.79249 24.5816 12.9899 24.5816C16.1874 24.5816 19.0851 23.2923 21.1834 21.1941C23.2816 19.0958 24.581 16.1981 24.581 13C24.581 9.80257 23.2823 6.90479 21.1834 4.80654Z" fill="#006BB7"/>
</svg>
