<svg width="30" height="30" viewBox="0 0 30 30" fill="none" xmlns="http://www.w3.org/2000/svg">
<path d="M25.6066 4.39336C22.7735 1.56023 19.0066 0 15 0C10.9934 0 7.22648 1.56023 4.39336 4.39336C1.56029 7.22648 0 10.9934 0 15C0 19.0066 1.56029 22.7735 4.39336 25.6066C7.22648 28.4398 10.9934 30 15 30C19.0066 30 22.7735 28.4398 25.6066 25.6066C28.4397 22.7735 30 19.0066 30 15C30 10.9934 28.4397 7.22648 25.6066 4.39336ZM15 28.2422C7.69822 28.2422 1.75781 22.3018 1.75781 15C1.75781 7.69822 7.69822 1.75781 15 1.75781C22.3018 1.75781 28.2422 7.69822 28.2422 15C28.2422 22.3018 22.3018 28.2422 15 28.2422Z" fill="#0451A5"/>
<path d="M15.9414 14.1211H14.0585C12.9859 14.1211 12.1132 13.2485 12.1132 12.1758C12.1132 11.1032 12.9859 10.2305 14.0585 10.2305H17.8242C18.3096 10.2305 18.7031 9.83701 18.7031 9.35162C18.7031 8.86623 18.3096 8.47272 17.8242 8.47272H15.8789V6.5274C15.8789 6.04201 15.4854 5.6485 15 5.6485C14.5146 5.6485 14.1211 6.04201 14.1211 6.5274V8.47272H14.0586C12.0167 8.47272 10.3555 10.134 10.3555 12.1758C10.3555 14.2177 12.0167 15.8789 14.0586 15.8789H15.9415C17.0141 15.8789 17.8867 16.7516 17.8867 17.8242C17.8867 18.8968 17.0141 19.7695 15.9415 19.7695H12.1758C11.6904 19.7695 11.2969 20.163 11.2969 20.6484C11.2969 21.1338 11.6904 21.5273 12.1758 21.5273H14.1211V23.4727C14.1211 23.9581 14.5146 24.3516 15 24.3516C15.4854 24.3516 15.8789 23.9581 15.8789 23.4727V21.5273H15.9414C17.9833 21.5273 19.6445 19.8661 19.6445 17.8242C19.6445 15.7823 17.9833 14.1211 15.9414 14.1211Z" fill="#0451A5"/>
</svg>
