<svg width="30" height="30" viewBox="0 0 30 30" fill="none" xmlns="http://www.w3.org/2000/svg">
<path d="M16.8743 29.8048C16.7532 29.8251 16.6317 29.8439 16.5098 29.8611C16.6317 29.8439 16.7532 29.8251 16.8743 29.8048Z" fill="#008AD0"/>
<path d="M17.1651 29.7535C17.1072 29.7645 17.0493 29.7746 16.9915 29.7849C17.0493 29.7746 17.1072 29.7645 17.1651 29.7535Z" fill="#008AD0"/>
<path d="M16.1851 29.9027C16.0434 29.9192 15.9008 29.9339 15.7578 29.9462C15.9008 29.9339 16.0434 29.9192 16.1851 29.9027Z" fill="#008AD0"/>
<path d="M16.4644 29.8675C16.3963 29.8768 16.3278 29.8855 16.2595 29.8938C16.3278 29.8855 16.3963 29.8768 16.4644 29.8675Z" fill="#008AD0"/>
<path d="M17.5604 29.6725C17.5094 29.6837 17.4582 29.6949 17.407 29.7056C17.4582 29.6949 17.5094 29.6837 17.5604 29.6725Z" fill="#008AD0"/>
<path d="M18.5424 29.4207C18.5012 29.4328 18.4599 29.4443 18.4187 29.4562C18.4599 29.4443 18.5012 29.4328 18.5424 29.4207Z" fill="#008AD0"/>
<path d="M18.2454 29.5045C18.2006 29.5166 18.1556 29.529 18.1106 29.5406C18.1556 29.529 18.2006 29.5168 18.2454 29.5045Z" fill="#008AD0"/>
<path d="M17.8569 29.6047C17.8094 29.6161 17.7615 29.6269 17.7136 29.6379C17.7615 29.6269 17.8094 29.6161 17.8569 29.6047Z" fill="#008AD0"/>
<path d="M15.7531 29.9467C15.6767 29.9533 15.6002 29.9593 15.5234 29.9645C15.6002 29.9593 15.6767 29.9533 15.7531 29.9467Z" fill="#008AD0"/>
<path d="M29.0625 15C29.0625 6.717 22.5554 0 14.5312 0C6.50709 0 0 6.717 0 15C0 23.283 6.50709 30 14.5312 30C14.6166 30 14.7015 29.9982 14.7867 29.9966V18.3197H11.6647V14.564H14.7867V11.8002C14.7867 8.59497 16.6822 6.85043 19.4521 6.85043C20.7785 6.85043 21.9186 6.95251 22.251 6.99806V10.348H20.341C18.8341 10.348 18.5423 11.0873 18.5423 12.1719V14.564H22.1454L21.6758 18.3197H18.5423V29.4205C24.6162 27.6231 29.0625 21.8468 29.0625 15Z" fill="#008AD0"/>
<path d="M15.4913 29.9666C15.3401 29.9767 15.1882 29.9847 15.0359 29.9899C15.1882 29.9847 15.3401 29.9767 15.4913 29.9666Z" fill="#008AD0"/>
<path d="M15.0281 29.9904C14.9478 29.9931 14.8674 29.9952 14.7869 29.9966C14.8674 29.9952 14.9478 29.9931 15.0281 29.9904Z" fill="#008AD0"/>
</svg>
