<svg width="30" height="30" viewBox="0 0 30 30" fill="none" xmlns="http://www.w3.org/2000/svg">
<path d="M25.6066 4.39336C22.7735 1.56023 19.0066 0 15 0C10.9934 0 7.22648 1.56023 4.39336 4.39336C1.56029 7.22648 0 10.9934 0 15C0 19.0066 1.56029 22.7735 4.39336 25.6066C7.22648 28.4398 10.9934 30 15 30C19.0066 30 22.7735 28.4398 25.6066 25.6066C28.4397 22.7735 30 19.0066 30 15C30 10.9934 28.4397 7.22648 25.6066 4.39336ZM15 28.2422C7.69822 28.2422 1.75781 22.3018 1.75781 15C1.75781 7.69822 7.69822 1.75781 15 1.75781C22.3018 1.75781 28.2422 7.69822 28.2422 15C28.2422 22.3018 22.3018 28.2422 15 28.2422Z" fill="#0451A5"/>
<path d="M14.5565 19.458C14.4098 19.458 14.2925 19.414 14.2045 19.326C14.1165 19.238 14.0725 19.1207 14.0725 18.974V18.072C14.1018 17.2947 14.2998 16.62 14.6665 16.048C15.0478 15.476 15.5831 14.838 16.2725 14.134C16.8005 13.5913 17.1891 13.144 17.4385 12.792C17.7025 12.44 17.8565 12.0587 17.9005 11.648C17.9151 11.5893 17.9225 11.494 17.9225 11.362C17.9225 10.6873 17.6365 10.152 17.0645 9.756C16.4925 9.36 15.8251 9.162 15.0625 9.162C14.2411 9.162 13.5518 9.382 12.9945 9.822C12.4518 10.2473 12.0998 10.922 11.9385 11.846C11.8798 12.1687 11.6891 12.33 11.3665 12.33H10.3985C10.2665 12.33 10.1491 12.286 10.0465 12.198C9.95848 12.11 9.91448 11.9927 9.91448 11.846C9.94381 11.0393 10.1711 10.2987 10.5965 9.624C11.0365 8.93467 11.6451 8.392 12.4225 7.996C13.2145 7.58533 14.1165 7.38 15.1285 7.38C16.1991 7.38 17.1011 7.56333 17.8345 7.93C18.5678 8.29667 19.1105 8.78067 19.4625 9.382C19.8145 9.96867 19.9905 10.592 19.9905 11.252C19.9905 12 19.8218 12.6453 19.4845 13.188C19.1471 13.7307 18.6411 14.3613 17.9665 15.08C17.4091 15.6813 16.9911 16.1947 16.7125 16.62C16.4338 17.0307 16.2725 17.4927 16.2285 18.006C16.1991 18.4167 16.1845 18.7247 16.1845 18.93C16.1111 19.282 15.9278 19.458 15.6345 19.458H14.5565ZM14.3585 23C14.2118 23 14.0871 22.956 13.9845 22.868C13.8965 22.7653 13.8525 22.6407 13.8525 22.494V21.218C13.8525 21.0713 13.8965 20.9467 13.9845 20.844C14.0871 20.7413 14.2118 20.69 14.3585 20.69H15.7225C15.8691 20.69 15.9938 20.7413 16.0965 20.844C16.1991 20.9467 16.2505 21.0713 16.2505 21.218V22.494C16.2505 22.6407 16.1991 22.7653 16.0965 22.868C15.9938 22.956 15.8691 23 15.7225 23H14.3585Z" fill="#0451A5"/>
</svg>
