<svg width="46" height="46" viewBox="0 0 46 46" fill="none" xmlns="http://www.w3.org/2000/svg">
<g clip-path="url(#clip0)">
<path d="M39.6267 17.2538L39.2917 17.2501C34.6199 17.2501 30.4167 19.8616 28.2791 23.9511C26.9346 23.3447 25.4766 23 23.9586 23C21.4509 23 19.0925 23.8941 17.2254 25.4513C17.1894 23.805 16.9749 22.1655 16.7657 20.709C16.5865 19.4637 16.4145 18.2554 16.4033 17.2492L21.2485 17.2501C22.0159 17.2501 22.7383 16.9506 23.2811 16.4078L27.1144 12.5745C28.2101 11.4789 28.2176 9.72155 27.1717 8.59547C27.537 8.04797 27.7111 7.39221 27.6441 6.72262C27.559 5.86256 27.0976 5.09333 26.3779 4.61412L24.0513 3.06344C22.9274 2.3138 21.6182 1.91705 20.2658 1.91705C17.4471 1.91705 14.7976 3.01483 12.8043 5.00816C9.13279 8.67947 6.24382 12.8834 4.21492 17.5037C1.77049 23.0701 0.531387 27.1767 0.531387 29.7082C0.531387 31.1588 0.405967 32.337 0.158003 33.2111C-0.371707 35.0782 0.462119 37.0697 2.18511 38.0542C9.08706 41.9979 16.937 44.0829 24.8862 44.0829H26.2722C31.1995 44.0829 36.0677 43.2931 40.7424 41.7349L41.4134 41.5103C44.1564 40.5969 46.0001 38.0393 46.0001 35.1474V23.9667C46 20.3581 43.1409 17.3465 39.6267 17.2538ZM44.0833 35.1474C44.0833 37.2129 42.7666 39.0397 40.8059 39.6929L40.1349 39.9175C35.6578 41.4092 30.9935 42.1663 26.2721 42.1663H24.8861C17.2701 42.1663 9.74856 40.1692 3.13582 36.3902C2.17936 35.8437 1.71335 34.7515 2.00156 33.7342C2.29822 32.6907 2.44799 31.3356 2.44799 29.7081C2.44799 27.4752 3.66553 23.5221 5.97052 18.2748C7.90213 13.8725 10.6573 9.86521 14.1593 6.36325C15.7905 4.73208 17.9589 3.83366 20.2658 3.83366C21.2381 3.83366 22.1796 4.11908 22.9882 4.65814L25.3147 6.20881C25.5552 6.36882 25.7087 6.62523 25.7368 6.91165C25.7658 7.19896 25.6647 7.47972 25.4616 7.68375L22.4004 10.7449C22.0728 11.0725 21.574 11.153 21.1604 10.9462C20.8478 10.7899 20.6364 10.5026 20.5802 10.1573C20.5241 9.81202 20.6336 9.47224 20.8806 9.22517L21.7613 8.34454C22.1356 7.97017 22.1356 7.36373 21.7613 6.98945C21.3869 6.61508 20.7805 6.61508 20.4062 6.98945L19.5255 7.87008C18.8377 8.55792 18.5316 9.50413 18.688 10.4652C18.8443 11.4254 19.4329 12.2255 20.3032 12.6607C21.4544 13.2354 22.844 13.0127 23.7556 12.1001L25.8518 10.0039C26.1108 10.3771 26.0915 10.8873 25.7592 11.2195L21.926 15.0528C21.7472 15.2316 21.5001 15.3335 21.2484 15.3335L16.7736 15.3328C16.8337 15.2334 16.8914 15.131 16.9696 15.0528C17.344 14.6784 17.344 14.072 16.9696 13.6977C16.5953 13.3233 15.9888 13.3233 15.6145 13.6977C14.047 15.2653 14.4279 17.9147 14.8687 20.9824C15.097 22.5752 15.3338 24.2223 15.3338 25.875C15.3338 29.8225 12.3465 30.6629 12.2192 30.6966C11.7101 30.8285 11.4013 31.346 11.5295 31.857C11.638 32.2931 12.0283 32.5832 12.4578 32.5832C12.5346 32.5832 12.6132 32.5739 12.6909 32.5542C13.8384 32.2675 15.7188 31.1663 16.6641 28.9076C16.6771 28.8902 16.6983 28.8836 16.7104 28.865C18.3089 26.3925 21.0182 24.9166 23.9586 24.9166C26.2477 24.9166 28.4039 25.8038 30.0295 27.4154C30.4058 27.7879 31.0131 27.786 31.3846 27.4098C31.7571 27.0335 31.7552 26.4271 31.379 26.0547C30.9356 25.6151 30.4495 25.236 29.947 24.8868C31.7482 21.3977 35.3198 19.1667 39.2916 19.1667L39.5752 19.1705C42.0608 19.236 44.0832 21.3876 44.0832 23.9667V35.1474H44.0833Z" fill="#E37035"/>
</g>
<defs>
<clipPath id="clip0">
<rect width="46" height="46" fill="white"/>
</clipPath>
</defs>
</svg>
