<svg width="36" height="32" viewBox="0 0 36 32" fill="none" xmlns="http://www.w3.org/2000/svg">
<path d="M26.8369 9.1431C26.9459 9.1431 27.0564 9.11613 27.1579 9.05845L29.1216 7.95095C29.3276 7.83448 29.4546 7.6165 29.4546 7.38054V4.56105C29.4546 4.19925 29.162 3.90674 28.8002 3.90674C28.4384 3.90674 28.1456 4.19925 28.1456 4.56105V6.99852L26.5148 7.91837C26.1999 8.09627 26.0886 8.49553 26.2662 8.81014C26.3864 9.02362 26.6081 9.1431 26.8369 9.1431Z" fill="#006BB7"/>
<path d="M35.9807 23.4849C35.9807 23.4845 35.9807 23.4845 35.9807 23.4849C35.9807 23.4845 35.9807 23.4841 35.9807 23.4841C35.8845 22.4178 35.4066 21.4807 34.6908 20.7946V14.8406C34.6908 13.6552 34.3249 12.5271 33.6455 11.5638C34.6979 10.4016 35.3455 8.86642 35.3455 7.17914C35.3455 3.57013 32.4092 0.633789 28.8002 0.633789C25.1912 0.633789 22.2544 3.57013 22.2544 7.17914C22.2544 7.86304 22.3608 8.5226 22.5563 9.14283H7.00678C3.86519 9.14283 1.309 11.699 1.309 14.8406V20.7946C0.593262 21.4807 0.115731 22.4178 0.0191013 23.4841V23.4845V23.4849C0.00786521 23.6118 0 23.7395 0 23.8699C0 26.216 1.90862 28.1246 4.2547 28.1246H4.58167V30.7429C4.58167 31.1047 4.87456 31.3973 5.23636 31.3973C5.59816 31.3973 5.89104 31.1047 5.89104 30.7429V28.1246H30.1092V30.7429C30.1092 31.1047 30.4017 31.3973 30.7635 31.3973C31.1253 31.3973 31.4182 31.1047 31.4182 30.7429V28.1246H31.7455C34.0912 28.1246 35.9998 26.216 35.9998 23.8699C35.9998 23.7395 35.9923 23.6118 35.9807 23.4849ZM4.2547 20.9245H31.7455C33.029 20.9245 34.1208 21.7305 34.5234 22.8882H1.47641C1.87904 21.7305 2.9708 20.9245 4.2547 20.9245ZM5.98393 19.6155C6.27644 18.4893 7.29255 17.6519 8.50904 17.6519H11.1274C12.3439 17.6519 13.36 18.4893 13.6525 19.6155H5.98393ZM21.693 19.6155C21.9855 18.4893 23.0016 17.6519 24.2181 17.6519H26.8365C28.053 17.6519 29.0691 18.4893 29.3616 19.6155H21.693ZM28.8002 1.94279C31.6874 1.94279 34.0365 4.29186 34.0365 7.17914C34.0365 10.0664 31.6874 12.4155 28.8002 12.4155C25.9125 12.4155 23.5638 10.0664 23.5638 7.17914C23.5638 4.29186 25.9125 1.94279 28.8002 1.94279ZM7.00678 10.4518H23.1402C24.2743 12.405 26.384 13.7245 28.8002 13.7245C30.2447 13.7245 31.577 13.2485 32.6609 12.4526C33.126 13.1642 33.3818 13.9814 33.3818 14.8406V19.9403C32.8777 19.732 32.326 19.6155 31.7455 19.6155H30.7047C30.3916 17.7612 28.7784 16.3429 26.8365 16.3429H24.2181C22.2762 16.3429 20.663 17.7612 20.3499 19.6155H14.9952C14.6821 17.7612 13.0694 16.3429 11.127 16.3429H8.50904C6.56708 16.3429 4.95396 17.7612 4.64085 19.6155H4.2547C3.67418 19.6155 3.12249 19.732 2.61837 19.9403V14.8406C2.61837 12.4207 4.58692 10.4518 7.00678 10.4518ZM31.7455 26.8156H4.2547C2.74084 26.8156 1.49064 25.668 1.32697 24.1972H34.6729C34.5096 25.668 33.259 26.8156 31.7455 26.8156Z" fill="#006BB7"/>
</svg>
