<svg width="30" height="29" viewBox="0 0 30 29" fill="none" xmlns="http://www.w3.org/2000/svg">
<path d="M29.9422 15.7845C29.6728 13.0752 28.4624 10.521 26.5338 8.59232C24.8857 6.94423 22.8684 5.88513 20.7457 5.4142V3.92543C21.6127 3.70974 22.2571 2.92499 22.2571 1.99222C22.2571 0.893686 21.3634 0 20.2649 0H16.0461C14.9476 0 14.0539 0.893686 14.0539 1.99222C14.0539 2.92493 14.6983 3.70969 15.5652 3.92543V5.41837C13.4491 5.89128 11.4384 6.94892 9.79498 8.59238C9.43532 8.95203 9.10368 9.32932 8.8001 9.72144C8.78539 9.72033 8.77068 9.71921 8.75568 9.71921H4.58017C4.25661 9.71921 3.99422 9.98154 3.99422 10.3052C3.99422 10.6288 4.25661 10.8911 4.58017 10.8911H8.0028C7.57318 11.6104 7.22677 12.3657 6.9631 13.1433H0.585947C0.262387 13.1433 0 13.4056 0 13.7292C0 14.0528 0.262387 14.3151 0.585947 14.3151H6.63198C6.46311 15.0564 6.36619 15.8108 6.34117 16.5673H3.75006C3.4265 16.5673 3.16411 16.8297 3.16411 17.1533C3.16411 17.4769 3.4265 17.7392 3.75006 17.7392H6.35986C6.40932 18.4977 6.53125 19.2522 6.72573 19.9914H2.92973C2.60617 19.9914 2.34379 20.2538 2.34379 20.5774C2.34379 20.901 2.60617 21.1633 2.92973 21.1633H7.09968C7.67449 22.6839 8.57281 24.1091 9.79498 25.3313C11.7254 27.2617 14.2823 28.4724 16.9944 28.7404C17.3815 28.7786 17.7688 28.7975 18.1557 28.7975C20.4422 28.7975 22.6996 28.1358 24.615 26.8884C24.8862 26.7118 24.9629 26.3488 24.7863 26.0777C24.6097 25.8065 24.2467 25.7298 23.9755 25.9064C19.7827 28.6367 14.1674 28.0464 10.6236 24.5026C6.46563 20.3447 6.46563 13.5791 10.6236 9.42108C14.7816 5.26315 21.5471 5.26315 25.7051 9.42108C29.2442 12.9602 29.8377 18.5707 27.1164 22.7615C26.9402 23.0329 27.0174 23.3959 27.2887 23.572C27.5602 23.7483 27.9231 23.6711 28.0992 23.3997C29.5532 21.1605 30.2077 18.4561 29.9422 15.7845ZM15.2258 1.99228C15.2258 1.53993 15.5937 1.17195 16.0461 1.17195H20.2649C20.7173 1.17195 21.0852 1.53993 21.0852 1.99228C21.0852 2.44463 20.7173 2.8126 20.2649 2.8126H20.1598H16.1511H16.0461C15.5937 2.8126 15.2258 2.44457 15.2258 1.99228ZM16.7371 5.21692V3.9845H19.5738V5.21481C18.6319 5.10277 17.6789 5.10348 16.7371 5.21692Z" fill="#0451A5"/>
<path d="M26.1201 24.3307C25.9654 24.3307 25.8148 24.3934 25.7059 24.5024C25.5963 24.6114 25.5342 24.7625 25.5342 24.9166C25.5342 25.0707 25.5963 25.2219 25.7059 25.3309C25.8148 25.4405 25.9655 25.5026 26.1201 25.5026C26.2742 25.5026 26.4248 25.4405 26.5344 25.3309C26.6434 25.2219 26.7061 25.0707 26.7061 24.9166C26.7061 24.7625 26.6434 24.6114 26.5344 24.5024C26.4248 24.3934 26.2742 24.3307 26.1201 24.3307Z" fill="#0451A5"/>
<path d="M18.1649 7.87195C13.1529 7.87195 9.0752 11.9496 9.0752 16.9617C9.0752 21.9738 13.1529 26.0514 18.1649 26.0514C23.177 26.0514 27.2547 21.9738 27.2547 16.9617C27.2547 11.9496 23.177 7.87195 18.1649 7.87195ZM18.1649 24.8795C13.799 24.8795 10.2471 21.3276 10.2471 16.9617C10.2471 12.5958 13.799 9.04384 18.1649 9.04384C22.5309 9.04384 26.0828 12.5958 26.0828 16.9617C26.0828 21.3276 22.5309 24.8795 18.1649 24.8795Z" fill="#0451A5"/>
<path d="M21.8705 12.4266L18.9683 15.3287C18.7256 15.2087 18.4526 15.141 18.164 15.141C17.8754 15.141 17.6024 15.2087 17.3597 15.3287L16.0609 14.0299C15.832 13.8011 15.4611 13.8011 15.2322 14.0299C15.0033 14.2587 15.0033 14.6297 15.2322 14.8585L16.531 16.1574C16.411 16.4001 16.3432 16.6731 16.3432 16.9617C16.3432 17.9656 17.16 18.7824 18.164 18.7824C19.168 18.7824 19.9848 17.9656 19.9848 16.9617C19.9848 16.6731 19.917 16.4001 19.797 16.1574L22.614 13.3404L22.6991 13.2553C22.9279 13.0264 22.9279 12.6554 22.6991 12.4266C22.4703 12.1978 22.0994 12.1978 21.8705 12.4266ZM18.164 17.6106C17.8062 17.6106 17.5151 17.3195 17.5151 16.9617C17.5151 16.6039 17.8062 16.3128 18.164 16.3128C18.5218 16.3128 18.8129 16.6039 18.8129 16.9617C18.8129 17.3195 18.5218 17.6106 18.164 17.6106Z" fill="#0451A5"/>
<path d="M24.4296 16.3829H23.8867C23.5632 16.3829 23.3008 16.6453 23.3008 16.9689C23.3008 17.2925 23.5632 17.5548 23.8867 17.5548H24.4296C24.7532 17.5548 25.0155 17.2925 25.0155 16.9689C25.0155 16.6453 24.7532 16.3829 24.4296 16.3829Z" fill="#0451A5"/>
<path d="M12.4422 16.3687H11.8994C11.5759 16.3687 11.3135 16.631 11.3135 16.9546C11.3135 17.2782 11.5759 17.5405 11.8994 17.5405H12.4422C12.7658 17.5405 13.0282 17.2782 13.0282 16.9546C13.0282 16.631 12.7658 16.3687 12.4422 16.3687Z" fill="#0451A5"/>
<path d="M18.1719 11.8256C18.4954 11.8256 18.7578 11.5633 18.7578 11.2397V10.6969C18.7578 10.3733 18.4954 10.111 18.1719 10.111C17.8483 10.111 17.5859 10.3733 17.5859 10.6969V11.2397C17.5859 11.5633 17.8483 11.8256 18.1719 11.8256Z" fill="#0451A5"/>
<path d="M18.1572 22.0979C17.8337 22.0979 17.5713 22.3602 17.5713 22.6838V23.2266C17.5713 23.5503 17.8337 23.8126 18.1572 23.8126C18.4808 23.8126 18.7432 23.5503 18.7432 23.2266V22.6838C18.7432 22.3602 18.4808 22.0979 18.1572 22.0979Z" fill="#0451A5"/>
<path d="M0.585938 19.9912C0.431836 19.9912 0.280664 20.0539 0.17168 20.1629C0.0626953 20.2719 0 20.423 0 20.5771C0 20.7318 0.0626367 20.8824 0.17168 20.9914C0.280723 21.1004 0.431836 21.1631 0.585938 21.1631C0.740039 21.1631 0.891211 21.1004 1.00014 20.9914C1.10912 20.8824 1.17188 20.7312 1.17188 20.5771C1.17188 20.423 1.10918 20.2719 1.00014 20.1629C0.891211 20.0539 0.740039 19.9912 0.585938 19.9912Z" fill="#0451A5"/>
</svg>
