<svg width="59" height="60" viewBox="0 0 59 60" fill="none" xmlns="http://www.w3.org/2000/svg">
<circle cx="29.3478" cy="29.3478" r="28.3478" stroke="white" stroke-opacity="0.8" stroke-width="2"/>
<mask id="mask0" mask-type="alpha" maskUnits="userSpaceOnUse" x="3" y="7" width="53" height="53">
<g clip-path="url(#clip0)">
<path d="M47.5079 55.5878L45.2063 45.9489C45.2027 45.9342 45.1988 45.9191 45.1944 45.9047C44.3266 43.0459 41.5259 39.969 37.426 39.969H34.3156V36.6158C34.9592 36.2225 35.5563 35.7456 36.0988 35.1867C37.5975 33.6431 38.6894 31.4781 39.2745 28.8999C40.2776 28.5723 41.0853 27.2503 41.264 25.5053C41.2751 25.395 41.2835 25.2852 41.2891 25.1757C42.2201 23.2738 42.6536 21.506 42.611 19.7777C42.6007 19.3553 42.2528 19.0238 41.828 19.0321C41.4061 19.0429 41.0725 19.3932 41.0829 19.8151C41.104 20.6777 40.9822 21.5602 40.7143 22.4789C40.3783 21.9495 39.9202 21.6354 39.3864 21.5813C39.1459 21.5566 38.9047 21.5888 38.6691 21.6764C38.595 21.7039 38.5469 21.7262 38.4864 21.7739C38.433 21.8078 37.9996 22.0705 37.1433 22.1875C36.2819 22.3053 34.8115 22.2958 32.6975 21.5813C32.1573 21.3986 31.6239 21.0204 31.0065 20.5825C29.4346 19.4672 27.2816 17.9399 23.2935 18.8606C21.4194 19.2933 20.0151 20.8357 19.4339 21.5741C19.3985 21.5753 19.3631 21.5777 19.328 21.5813C19.006 21.6139 18.7123 21.7417 18.4555 21.953C17.8947 20.5861 17.6861 19.099 17.8847 17.8392C18.1215 16.3389 18.8806 15.2243 20.1417 14.5266C20.2965 14.441 20.4167 14.304 20.482 14.1393C21.5014 11.5654 24.2285 9.85301 27.963 9.44142C32.3341 8.95938 36.6207 10.4393 38.3881 13.0398C39.2721 14.3411 39.9106 15.4799 40.3405 16.5212C40.5013 16.9117 40.9483 17.0972 41.3384 16.9364C41.7285 16.7752 41.9144 16.3285 41.7532 15.9385C41.2831 14.7988 40.5957 13.5696 39.6523 12.1812C38.5823 10.6061 36.8181 9.37256 34.5508 8.61307C32.4706 7.91648 30.0719 7.67088 27.7954 7.92205C25.8271 8.13899 24.0127 8.71895 22.5487 9.59865C20.9688 10.548 19.8316 11.8015 19.1648 13.3264C15.8132 15.3692 15.7523 19.626 17.1475 22.7842C17.2757 23.0744 17.405 23.3622 17.54 23.6571C17.417 24.2216 17.3839 24.8569 17.45 25.5057C17.6288 27.2507 18.4364 28.5727 19.4395 28.8999C20.0246 31.4781 21.1165 33.6431 22.6152 35.1867C23.1629 35.7508 23.7659 36.232 24.4164 36.6277V39.9694H21.2885C19.3062 39.9694 17.5885 40.5911 16.1826 41.8179C15.0442 42.8115 14.1275 44.2118 13.532 45.8681C13.5224 45.8948 13.5145 45.9219 13.5077 45.9493L11.2062 55.5878C10.951 56.6566 11.1958 57.7648 11.8777 58.6285C12.5655 59.5003 13.5993 59.9998 14.7134 59.9998H36.6135C37.0355 59.9998 37.3778 59.6579 37.3778 59.2356C37.3778 58.8136 37.0355 58.4713 36.6135 58.4713H33.7352L31.8831 47.206V43.9746C31.8831 43.7107 31.8234 43.4615 31.7195 43.2362C32.5836 42.8533 33.3503 42.2618 33.9434 41.4979H37.4256C40.7366 41.4979 43.0087 43.9969 43.7248 46.3275L46.0211 55.9429C46.1668 56.5535 46.0267 57.1872 45.6366 57.6816C45.2402 58.1835 44.6439 58.4713 44.0006 58.4713H40.1801C39.7578 58.4713 39.4158 58.8136 39.4158 59.2356C39.4158 59.6579 39.7578 60.0002 40.1801 60.0002H44.0006C45.1148 60.0002 46.1485 59.5003 46.8363 58.6285C47.5182 57.7644 47.763 56.6562 47.5079 55.5878ZM20.8235 28.0536C20.7527 27.6886 20.4318 27.4358 20.0728 27.4358C20.025 27.4358 19.9769 27.4402 19.9283 27.4494C19.7794 27.4641 19.1219 26.8244 18.971 25.3496C18.9037 24.6936 18.9686 24.05 19.1493 23.5843C19.2986 23.1986 19.4574 23.1046 19.4825 23.1018C19.4853 23.1018 19.4956 23.1026 19.5131 23.109C19.8459 23.2328 20.2201 23.111 20.4163 22.8148C20.7913 22.2496 22.1005 20.7044 23.6374 20.3497C26.9571 19.5834 28.5661 20.7251 30.1225 21.8289C30.8079 22.3153 31.4555 22.7746 32.2083 23.029C36.4177 24.4516 38.6587 23.441 39.2387 23.1034C39.2785 23.1185 39.4262 23.2244 39.5651 23.5843C39.7454 24.05 39.8107 24.6933 39.7434 25.3496C39.5926 26.8248 38.9334 27.4657 38.7845 27.4486C38.3713 27.3698 37.9713 27.64 37.8909 28.0532C36.8551 33.3772 33.7448 36.4307 29.357 36.4307C24.9697 36.4307 21.8593 33.3772 20.8235 28.0536ZM26.5627 58.3682L27.2672 54.0728C27.3357 53.656 27.0531 53.2632 26.6367 53.1947C26.2207 53.1258 25.8271 53.4085 25.7586 53.8252L24.9967 58.4713H14.7134C14.0702 58.4713 13.4739 58.1831 13.0774 57.6812C12.6873 57.1868 12.5472 56.5531 12.6929 55.9425L14.9845 46.3458C16.519 42.1288 19.5908 41.4975 21.2885 41.4975H24.7897C25.3824 42.2606 26.1487 42.8525 27.0125 43.2358C26.9082 43.4607 26.8485 43.7103 26.8485 43.9742V47.1809L26.3437 50.2587C26.2753 50.675 26.5575 51.0683 26.9743 51.1364C27.0161 51.1435 27.0575 51.1467 27.0989 51.1467C27.4663 51.1467 27.7907 50.8808 27.852 50.5058L28.26 48.0196H30.468L32.1693 58.3682H26.5627ZM30.3549 46.4911H28.377V43.9742C28.377 43.8428 28.4841 43.7357 28.6158 43.7357H30.1161C30.2479 43.7357 30.3549 43.8428 30.3549 43.9742V46.4911ZM29.3674 42.2068H29.3622C27.9865 42.2052 26.7533 41.5819 25.9449 40.4896V37.3641C27.0001 37.7558 28.1445 37.9592 29.357 37.9592C30.5766 37.9592 31.727 37.7534 32.787 37.3577V40.4916C31.977 41.5843 30.7434 42.2068 29.3674 42.2068Z" fill="white"/>
</g>
</mask>
<g mask="url(#mask0)">
<circle cx="29.3478" cy="29.3478" r="29.3478" fill="white"/>
</g>
<circle cx="29.3478" cy="29.3478" r="28.3478" stroke="white" stroke-width="2"/>
<defs>
<clipPath id="clip0">
<rect x="3.26086" y="7.82611" width="52.1739" height="52.1739" fill="white"/>
</clipPath>
</defs>
</svg>
