<svg width="46" height="46" viewBox="0 0 46 46" fill="none" xmlns="http://www.w3.org/2000/svg">
<path d="M28.9776 22.3306L20.2534 16.7789C20.0091 16.6242 19.6998 16.6139 19.4453 16.7527C19.1923 16.8923 19.0344 17.1588 19.0344 17.4483V28.5517C19.0344 28.8412 19.1923 29.1077 19.446 29.2473C19.565 29.3123 19.6959 29.3448 19.8275 29.3448C19.9758 29.3448 20.1241 29.3028 20.2534 29.2211L28.9776 23.6694C29.206 23.5234 29.3448 23.2712 29.3448 23C29.3448 22.7288 29.206 22.4766 28.9776 22.3306ZM20.6206 27.1075V18.8925L27.0741 23L20.6206 27.1075Z" fill="#0451A5"/>
<path d="M45.2069 4.75862H37.2759H8.72414H0.793103C0.35531 4.75862 0 5.11314 0 5.55172V14.2759V23V31.7241V40.4483C0 40.8869 0.35531 41.2414 0.793103 41.2414H8.72414H37.2759H45.2069C45.6447 41.2414 46 40.8869 46 40.4483V31.7241V23V14.2759V5.55172C46 5.11314 45.6447 4.75862 45.2069 4.75862ZM7.93103 22.2069H1.58621V15.069H7.93103V22.2069ZM1.58621 23.7931H7.93103V30.931H1.58621V23.7931ZM9.51724 31.7241V23V14.2759V6.34483H36.4828V14.2759V23V31.7241V39.6552H9.51724V31.7241ZM44.4138 22.2069H38.069V15.069H44.4138V22.2069ZM38.069 23.7931H44.4138V30.931H38.069V23.7931ZM44.4138 6.34483V13.4828H38.069V6.34483H44.4138ZM1.58621 6.34483H7.93103V13.4828H1.58621V6.34483ZM1.58621 39.6552V32.5172H7.93103V39.6552H1.58621ZM44.4138 39.6552H38.069V32.5172H44.4138V39.6552Z" fill="#0451A5"/>
</svg>
